<?xml version="1.0" encoding="UTF-8" standalone="no"?>
<!DOCTYPE svg PUBLIC "-//W3C//DTD SVG 1.1//EN"
 "http://www.w3.org/Graphics/SVG/1.1/DTD/svg11.dtd">
<!-- Generated by graphviz version 2.40.1 (20161225.0304)
 -->
<!-- Title: %3 Pages: 1 -->
<svg width="877pt" height="548pt"
 viewBox="0.00 0.00 876.50 548.00" xmlns="http://www.w3.org/2000/svg" xmlns:xlink="http://www.w3.org/1999/xlink">
<g id="graph0" class="graph" transform="scale(1 1) rotate(0) translate(4 544)">
<title>%3</title>
<polygon fill="#ffffff" stroke="transparent" points="-4,4 -4,-544 872.5,-544 872.5,4 -4,4"/>
<!-- [root] aws_eip.ip -->
<g id="node1" class="node">
<title>[root] aws_eip.ip</title>
<polygon fill="none" stroke="#000000" points="575.5,-396 500.5,-396 500.5,-360 575.5,-360 575.5,-396"/>
<text text-anchor="middle" x="538" y="-374.3" font-family="Times,serif" font-size="14.00" fill="#000000">aws_eip.ip</text>
</g>
<!-- [root] aws_instance.iac_ec2_instance -->
<g id="node5" class="node">
<title>[root] aws_instance.iac_ec2_instance</title>
<polygon fill="none" stroke="#000000" points="630.5,-324 445.5,-324 445.5,-288 630.5,-288 630.5,-324"/>
<text text-anchor="middle" x="538" y="-302.3" font-family="Times,serif" font-size="14.00" fill="#000000">aws_instance.iac_ec2_instance</text>
</g>
<!-- [root] aws_eip.ip&#45;&gt;[root] aws_instance.iac_ec2_instance -->
<g id="edge1" class="edge">
<title>[root] aws_eip.ip&#45;&gt;[root] aws_instance.iac_ec2_instance</title>
<path fill="none" stroke="#000000" d="M538,-359.8314C538,-352.131 538,-342.9743 538,-334.4166"/>
<polygon fill="#000000" stroke="#000000" points="541.5001,-334.4132 538,-324.4133 534.5001,-334.4133 541.5001,-334.4132"/>
</g>
<!-- [root] aws_iam_instance_profile.iac_instance_profile -->
<g id="node2" class="node">
<title>[root] aws_iam_instance_profile.iac_instance_profile</title>
<polygon fill="none" stroke="#000000" points="430,-252 158,-252 158,-216 430,-216 430,-252"/>
<text text-anchor="middle" x="294" y="-230.3" font-family="Times,serif" font-size="14.00" fill="#000000">aws_iam_instance_profile.iac_instance_profile</text>
</g>
<!-- [root] aws_iam_role.iac&#45;ec2&#45;session&#45;manager&#45;role -->
<g id="node3" class="node">
<title>[root] aws_iam_role.iac&#45;ec2&#45;session&#45;manager&#45;role</title>
<polygon fill="none" stroke="#000000" points="422.5,-180 165.5,-180 165.5,-144 422.5,-144 422.5,-180"/>
<text text-anchor="middle" x="294" y="-158.3" font-family="Times,serif" font-size="14.00" fill="#000000">aws_iam_role.iac&#45;ec2&#45;session&#45;manager&#45;role</text>
</g>
<!-- [root] aws_iam_instance_profile.iac_instance_profile&#45;&gt;[root] aws_iam_role.iac&#45;ec2&#45;session&#45;manager&#45;role -->
<g id="edge2" class="edge">
<title>[root] aws_iam_instance_profile.iac_instance_profile&#45;&gt;[root] aws_iam_role.iac&#45;ec2&#45;session&#45;manager&#45;role</title>
<path fill="none" stroke="#000000" d="M294,-215.8314C294,-208.131 294,-198.9743 294,-190.4166"/>
<polygon fill="#000000" stroke="#000000" points="297.5001,-190.4132 294,-180.4133 290.5001,-190.4133 297.5001,-190.4132"/>
</g>
<!-- [root] provider.aws -->
<g id="node12" class="node">
<title>[root] provider.aws</title>
<polygon fill="none" stroke="#000000" points="439,-36 359.0666,-18 439,0 518.9334,-18 439,-36"/>
<text text-anchor="middle" x="439" y="-14.3" font-family="Times,serif" font-size="14.00" fill="#000000">provider.aws</text>
</g>
<!-- [root] aws_iam_role.iac&#45;ec2&#45;session&#45;manager&#45;role&#45;&gt;[root] provider.aws -->
<g id="edge3" class="edge">
<title>[root] aws_iam_role.iac&#45;ec2&#45;session&#45;manager&#45;role&#45;&gt;[root] provider.aws</title>
<path fill="none" stroke="#000000" d="M312.3644,-143.7623C338.9471,-117.3628 388.0892,-68.5596 416.712,-40.1343"/>
<polygon fill="#000000" stroke="#000000" points="419.2338,-42.5626 423.863,-33.0326 414.3012,-37.5957 419.2338,-42.5626"/>
</g>
<!-- [root] aws_iam_role_policy_attachment.iac&#45;session&#45;mnger&#45;AmazonEC2RoleforSSMPolicy -->
<g id="node4" class="node">
<title>[root] aws_iam_role_policy_attachment.iac&#45;session&#45;mnger&#45;AmazonEC2RoleforSSMPolicy</title>
<polygon fill="none" stroke="#000000" points="482,-396 0,-396 0,-360 482,-360 482,-396"/>
<text text-anchor="middle" x="241" y="-374.3" font-family="Times,serif" font-size="14.00" fill="#000000">aws_iam_role_policy_attachment.iac&#45;session&#45;mnger&#45;AmazonEC2RoleforSSMPolicy</text>
</g>
<!-- [root] aws_iam_role_policy_attachment.iac&#45;session&#45;mnger&#45;AmazonEC2RoleforSSMPolicy&#45;&gt;[root] aws_iam_role.iac&#45;ec2&#45;session&#45;manager&#45;role -->
<g id="edge4" class="edge">
<title>[root] aws_iam_role_policy_attachment.iac&#45;session&#45;mnger&#45;AmazonEC2RoleforSSMPolicy&#45;&gt;[root] aws_iam_role.iac&#45;ec2&#45;session&#45;manager&#45;role</title>
<path fill="none" stroke="#000000" d="M217.0317,-359.8635C179.4882,-329.2178 114.4928,-265.6735 149,-216 157.3304,-204.0083 184.7336,-192.4634 213.5086,-183.1483"/>
<polygon fill="#000000" stroke="#000000" points="214.801,-186.4111 223.2942,-180.0773 212.705,-179.7322 214.801,-186.4111"/>
</g>
<!-- [root] aws_instance.iac_ec2_instance&#45;&gt;[root] aws_iam_instance_profile.iac_instance_profile -->
<g id="edge5" class="edge">
<title>[root] aws_instance.iac_ec2_instance&#45;&gt;[root] aws_iam_instance_profile.iac_instance_profile</title>
<path fill="none" stroke="#000000" d="M476.7434,-287.9243C442.8071,-277.9103 400.4519,-265.412 365.0651,-254.97"/>
<polygon fill="#000000" stroke="#000000" points="365.8635,-251.5565 355.2818,-252.0831 363.8823,-258.2703 365.8635,-251.5565"/>
</g>
<!-- [root] aws_internet_gateway.iac_gw -->
<g id="node6" class="node">
<title>[root] aws_internet_gateway.iac_gw</title>
<polygon fill="none" stroke="#000000" points="824,-252 644,-252 644,-216 824,-216 824,-252"/>
<text text-anchor="middle" x="734" y="-230.3" font-family="Times,serif" font-size="14.00" fill="#000000">aws_internet_gateway.iac_gw</text>
</g>
<!-- [root] aws_instance.iac_ec2_instance&#45;&gt;[root] aws_internet_gateway.iac_gw -->
<g id="edge6" class="edge">
<title>[root] aws_instance.iac_ec2_instance&#45;&gt;[root] aws_internet_gateway.iac_gw</title>
<path fill="none" stroke="#000000" d="M587.2061,-287.9243C613.8839,-278.1243 647.0386,-265.945 675.0852,-255.6422"/>
<polygon fill="#000000" stroke="#000000" points="676.5938,-258.8167 684.7737,-252.0831 674.1801,-252.246 676.5938,-258.8167"/>
</g>
<!-- [root] aws_network_interface.iac_if -->
<g id="node7" class="node">
<title>[root] aws_network_interface.iac_if</title>
<polygon fill="none" stroke="#000000" points="625.5,-252 448.5,-252 448.5,-216 625.5,-216 625.5,-252"/>
<text text-anchor="middle" x="537" y="-230.3" font-family="Times,serif" font-size="14.00" fill="#000000">aws_network_interface.iac_if</text>
</g>
<!-- [root] aws_instance.iac_ec2_instance&#45;&gt;[root] aws_network_interface.iac_if -->
<g id="edge7" class="edge">
<title>[root] aws_instance.iac_ec2_instance&#45;&gt;[root] aws_network_interface.iac_if</title>
<path fill="none" stroke="#000000" d="M537.7477,-287.8314C537.6407,-280.131 537.5135,-270.9743 537.3947,-262.4166"/>
<polygon fill="#000000" stroke="#000000" points="540.8944,-262.3637 537.2557,-252.4133 533.8951,-262.4609 540.8944,-262.3637"/>
</g>
<!-- [root] aws_vpc.iac_vpc -->
<g id="node11" class="node">
<title>[root] aws_vpc.iac_vpc</title>
<polygon fill="none" stroke="#000000" points="616,-108 506,-108 506,-72 616,-72 616,-108"/>
<text text-anchor="middle" x="561" y="-86.3" font-family="Times,serif" font-size="14.00" fill="#000000">aws_vpc.iac_vpc</text>
</g>
<!-- [root] aws_internet_gateway.iac_gw&#45;&gt;[root] aws_vpc.iac_vpc -->
<g id="edge8" class="edge">
<title>[root] aws_internet_gateway.iac_gw&#45;&gt;[root] aws_vpc.iac_vpc</title>
<path fill="none" stroke="#000000" d="M716.7826,-215.8357C698.5154,-196.9761 668.4227,-167.0611 640,-144 626.9831,-133.4386 611.955,-122.814 598.5232,-113.8166"/>
<polygon fill="#000000" stroke="#000000" points="600.2358,-110.7531 589.9642,-108.156 596.3744,-116.5917 600.2358,-110.7531"/>
</g>
<!-- [root] aws_subnet.iac_subnet -->
<g id="node10" class="node">
<title>[root] aws_subnet.iac_subnet</title>
<polygon fill="none" stroke="#000000" points="631.5,-180 490.5,-180 490.5,-144 631.5,-144 631.5,-180"/>
<text text-anchor="middle" x="561" y="-158.3" font-family="Times,serif" font-size="14.00" fill="#000000">aws_subnet.iac_subnet</text>
</g>
<!-- [root] aws_network_interface.iac_if&#45;&gt;[root] aws_subnet.iac_subnet -->
<g id="edge9" class="edge">
<title>[root] aws_network_interface.iac_if&#45;&gt;[root] aws_subnet.iac_subnet</title>
<path fill="none" stroke="#000000" d="M543.0562,-215.8314C545.6512,-208.0463 548.7424,-198.7729 551.6218,-190.1347"/>
<polygon fill="#000000" stroke="#000000" points="555.0203,-191.0069 554.8622,-180.4133 548.3795,-188.7933 555.0203,-191.0069"/>
</g>
<!-- [root] aws_route_table.iac_rtable -->
<g id="node8" class="node">
<title>[root] aws_route_table.iac_rtable</title>
<polygon fill="none" stroke="#000000" points="814,-324 652,-324 652,-288 814,-288 814,-324"/>
<text text-anchor="middle" x="733" y="-302.3" font-family="Times,serif" font-size="14.00" fill="#000000">aws_route_table.iac_rtable</text>
</g>
<!-- [root] aws_route_table.iac_rtable&#45;&gt;[root] aws_internet_gateway.iac_gw -->
<g id="edge10" class="edge">
<title>[root] aws_route_table.iac_rtable&#45;&gt;[root] aws_internet_gateway.iac_gw</title>
<path fill="none" stroke="#000000" d="M733.2523,-287.8314C733.3593,-280.131 733.4865,-270.9743 733.6053,-262.4166"/>
<polygon fill="#000000" stroke="#000000" points="737.1049,-262.4609 733.7443,-252.4133 730.1056,-262.3637 737.1049,-262.4609"/>
</g>
<!-- [root] aws_route_table_association.iac_rt_association -->
<g id="node9" class="node">
<title>[root] aws_route_table_association.iac_rt_association</title>
<polygon fill="none" stroke="#000000" points="868.5,-396 595.5,-396 595.5,-360 868.5,-360 868.5,-396"/>
<text text-anchor="middle" x="732" y="-374.3" font-family="Times,serif" font-size="14.00" fill="#000000">aws_route_table_association.iac_rt_association</text>
</g>
<!-- [root] aws_route_table_association.iac_rt_association&#45;&gt;[root] aws_route_table.iac_rtable -->
<g id="edge11" class="edge">
<title>[root] aws_route_table_association.iac_rt_association&#45;&gt;[root] aws_route_table.iac_rtable</title>
<path fill="none" stroke="#000000" d="M732.2523,-359.8314C732.3593,-352.131 732.4865,-342.9743 732.6053,-334.4166"/>
<polygon fill="#000000" stroke="#000000" points="736.1049,-334.4609 732.7443,-324.4133 729.1056,-334.3637 736.1049,-334.4609"/>
</g>
<!-- [root] aws_route_table_association.iac_rt_association&#45;&gt;[root] aws_subnet.iac_subnet -->
<g id="edge12" class="edge">
<title>[root] aws_route_table_association.iac_rt_association&#45;&gt;[root] aws_subnet.iac_subnet</title>
<path fill="none" stroke="#000000" d="M779.9118,-359.8284C796.074,-351.348 812.6274,-339.6055 823,-324 849.6841,-283.8539 863.588,-253.2576 833,-216 809.1605,-186.9623 713.2891,-173.2598 642.0775,-166.9869"/>
<polygon fill="#000000" stroke="#000000" points="642.0207,-163.4697 631.7613,-166.1144 641.4307,-170.4448 642.0207,-163.4697"/>
</g>
<!-- [root] aws_subnet.iac_subnet&#45;&gt;[root] aws_vpc.iac_vpc -->
<g id="edge13" class="edge">
<title>[root] aws_subnet.iac_subnet&#45;&gt;[root] aws_vpc.iac_vpc</title>
<path fill="none" stroke="#000000" d="M561,-143.8314C561,-136.131 561,-126.9743 561,-118.4166"/>
<polygon fill="#000000" stroke="#000000" points="564.5001,-118.4132 561,-108.4133 557.5001,-118.4133 564.5001,-118.4132"/>
</g>
<!-- [root] aws_vpc.iac_vpc&#45;&gt;[root] provider.aws -->
<g id="edge14" class="edge">
<title>[root] aws_vpc.iac_vpc&#45;&gt;[root] provider.aws</title>
<path fill="none" stroke="#000000" d="M530.2142,-71.8314C511.7729,-60.9479 488.4026,-47.1557 469.9348,-36.2566"/>
<polygon fill="#000000" stroke="#000000" points="471.6967,-33.2324 461.3057,-31.164 468.1389,-39.2608 471.6967,-33.2324"/>
</g>
<!-- [root] meta.count&#45;boundary (EachMode fixup) -->
<g id="node13" class="node">
<title>[root] meta.count&#45;boundary (EachMode fixup)</title>
<ellipse fill="none" stroke="#000000" cx="335" cy="-450" rx="176.5689" ry="18"/>
<text text-anchor="middle" x="335" y="-446.3" font-family="Times,serif" font-size="14.00" fill="#000000">[root] meta.count&#45;boundary (EachMode fixup)</text>
</g>
<!-- [root] meta.count&#45;boundary (EachMode fixup)&#45;&gt;[root] aws_eip.ip -->
<g id="edge15" class="edge">
<title>[root] meta.count&#45;boundary (EachMode fixup)&#45;&gt;[root] aws_eip.ip</title>
<path fill="none" stroke="#000000" d="M386.4392,-432.6636C414.7203,-423.0237 450.624,-410.6106 490.8524,-396.0033"/>
<polygon fill="#000000" stroke="#000000" points="492.1327,-399.262 500.3303,-392.5502 489.7364,-392.685 492.1327,-399.262"/>
</g>
<!-- [root] meta.count&#45;boundary (EachMode fixup)&#45;&gt;[root] aws_iam_role_policy_attachment.iac&#45;session&#45;mnger&#45;AmazonEC2RoleforSSMPolicy -->
<g id="edge16" class="edge">
<title>[root] meta.count&#45;boundary (EachMode fixup)&#45;&gt;[root] aws_iam_role_policy_attachment.iac&#45;session&#45;mnger&#45;AmazonEC2RoleforSSMPolicy</title>
<path fill="none" stroke="#000000" d="M311.2798,-431.8314C299.5906,-422.8779 285.3312,-411.9558 272.7191,-402.2955"/>
<polygon fill="#000000" stroke="#000000" points="274.7797,-399.4651 264.7126,-396.1628 270.5231,-405.0222 274.7797,-399.4651"/>
</g>
<!-- [root] meta.count&#45;boundary (EachMode fixup)&#45;&gt;[root] aws_route_table_association.iac_rt_association -->
<g id="edge17" class="edge">
<title>[root] meta.count&#45;boundary (EachMode fixup)&#45;&gt;[root] aws_route_table_association.iac_rt_association</title>
<path fill="none" stroke="#000000" d="M421.6328,-434.2883C480.6466,-423.5855 559.2469,-409.3305 622.5816,-397.8442"/>
<polygon fill="#000000" stroke="#000000" points="623.3951,-401.2538 632.61,-396.0254 622.1459,-394.3661 623.3951,-401.2538"/>
</g>
<!-- [root] provider.aws (close) -->
<g id="node14" class="node">
<title>[root] provider.aws (close)</title>
<ellipse fill="none" stroke="#000000" cx="635" cy="-450" rx="105.0817" ry="18"/>
<text text-anchor="middle" x="635" y="-446.3" font-family="Times,serif" font-size="14.00" fill="#000000">[root] provider.aws (close)</text>
</g>
<!-- [root] provider.aws (close)&#45;&gt;[root] aws_eip.ip -->
<g id="edge18" class="edge">
<title>[root] provider.aws (close)&#45;&gt;[root] aws_eip.ip</title>
<path fill="none" stroke="#000000" d="M611.0225,-432.2022C598.8728,-423.1839 583.9369,-412.0975 570.7454,-402.3059"/>
<polygon fill="#000000" stroke="#000000" points="572.4913,-399.2429 562.3755,-396.0931 568.3191,-404.8638 572.4913,-399.2429"/>
</g>
<!-- [root] provider.aws (close)&#45;&gt;[root] aws_iam_role_policy_attachment.iac&#45;session&#45;mnger&#45;AmazonEC2RoleforSSMPolicy -->
<g id="edge19" class="edge">
<title>[root] provider.aws (close)&#45;&gt;[root] aws_iam_role_policy_attachment.iac&#45;session&#45;mnger&#45;AmazonEC2RoleforSSMPolicy</title>
<path fill="none" stroke="#000000" d="M562.7343,-436.7941C503.0227,-425.8823 417.3382,-410.2242 349.4062,-397.8103"/>
<polygon fill="#000000" stroke="#000000" points="349.9838,-394.3579 339.5175,-396.0032 348.7254,-401.2439 349.9838,-394.3579"/>
</g>
<!-- [root] provider.aws (close)&#45;&gt;[root] aws_route_table_association.iac_rt_association -->
<g id="edge20" class="edge">
<title>[root] provider.aws (close)&#45;&gt;[root] aws_route_table_association.iac_rt_association</title>
<path fill="none" stroke="#000000" d="M658.9775,-432.2022C671.1272,-423.1839 686.0631,-412.0975 699.2546,-402.3059"/>
<polygon fill="#000000" stroke="#000000" points="701.6809,-404.8638 707.6245,-396.0931 697.5087,-399.2429 701.6809,-404.8638"/>
</g>
<!-- [root] root -->
<g id="node15" class="node">
<title>[root] root</title>
<ellipse fill="none" stroke="#000000" cx="485" cy="-522" rx="47.3916" ry="18"/>
<text text-anchor="middle" x="485" y="-518.3" font-family="Times,serif" font-size="14.00" fill="#000000">[root] root</text>
</g>
<!-- [root] root&#45;&gt;[root] meta.count&#45;boundary (EachMode fixup) -->
<g id="edge21" class="edge">
<title>[root] root&#45;&gt;[root] meta.count&#45;boundary (EachMode fixup)</title>
<path fill="none" stroke="#000000" d="M455.3648,-507.7751C434.0909,-497.5636 405.0166,-483.608 380.7726,-471.9708"/>
<polygon fill="#000000" stroke="#000000" points="382.2734,-468.809 371.7436,-467.6369 379.2443,-475.1196 382.2734,-468.809"/>
</g>
<!-- [root] root&#45;&gt;[root] provider.aws (close) -->
<g id="edge22" class="edge">
<title>[root] root&#45;&gt;[root] provider.aws (close)</title>
<path fill="none" stroke="#000000" d="M514.6352,-507.7751C536.2877,-497.3819 566.0206,-483.1101 590.5169,-471.3519"/>
<polygon fill="#000000" stroke="#000000" points="592.1206,-474.4645 599.6213,-466.9818 589.0915,-468.1538 592.1206,-474.4645"/>
</g>
</g>
</svg>
